# xmcd
#
# Track frame offsets: 
#        182
#        13560
#        26115
#        42190
#        61332
#        80530
#        100332
#        116110
#        137430
#        157960
#        171225
#        191520
#        210870
#        232892
#
# Disc length: 3175 seconds
#
# Revision: 7
# Processed by: cddbd v1.5.2PL0 Copyright (c) Steve Scherf et al.
# Submitted via: ExactAudioCopy v0.99pb4
#
DISCID=ac0c650e
DTITLE=Lambchop - How I Quit Smoking
DYEAR=1995
DGENRE=--
TTITLE0=For Which We Are Truly Thankful
TTITLE1=The Man Who Loved Beer
TTITLE2=The Militant
TTITLE3=We Never Argue
TTITLE4=Life's Little Tragedy
TTITLE5=Suzieju
TTITLE6=All Smiles And Mariachi
TTITLE7=The Scary Caroler
TTITLE8=Smuckers
TTITLE9=The Militant
TTITLE10=Garf
TTITLE11=Your Life As A Sequel
TTITLE12=Theöne
TTITLE13=Again
EXTD=
EXTT0=
EXTT1=
EXTT2=
EXTT3=
EXTT4=
EXTT5=
EXTT6=
EXTT7=
EXTT8=
EXTT9=
EXTT10=
EXTT11=
EXTT12=
EXTT13=
PLAYORDER=
